<svg width="64" height="64" viewBox="0 0 64 64" fill="none" xmlns="http://www.w3.org/2000/svg">
  <rect width="64" height="64" rx="12" fill="#2A324B"/>
  <path fill-rule="evenodd" clip-rule="evenodd" d="M45.3333 22.6667C45.3333 15.3333 39.3333 9.33334 32
  9.33334C24.6667 9.33334 18.6667 15.3333 18.6667 22.6667C18.6667 29.5556 24.0444 35.1111 30.8889
  35.3333V48H25.3333V53.3333H30.8889V58.6667H36.4444V42.6667H36.5333C41.5111 41.5556 45.3333 36.6667 45.3333
  30.8889V22.6667ZM32 30C27.9556 30 24.6667 26.7111 24.6667 22.6667C24.6667 18.6222 27.9556 15.3333 32
  15.3333C36.0444 15.3333 39.3333 18.6222 39.3333 22.6667C39.3333 26.7111 36.0444 30 32 30Z" fill="#E5E7EB"/>
  </svg>